<svg xmlns="http://www.w3.org/2000/svg" xmlns:xlink="http://www.w3.org/1999/xlink" width="163" height="163" viewBox="0 0 163 163">
    <defs>
        <filter id="Ellipse_388" x="11" y="14" width="141" height="141" filterUnits="userSpaceOnUse">
            <feOffset dy="3"/>
            <feGaussianBlur stdDeviation="3" result="blur"/>
            <feFlood flood-opacity="0.161"/>
            <feComposite operator="in" in2="blur"/>
            <feComposite in="SourceGraphic"/>
        </filter>
        <linearGradient id="linear-gradient" x1="0.5" y1="-0.023" x2="0.5" y2="1.001" gradientUnits="objectBoundingBox">
            <stop offset="0" stop-color="#1c80bf"/>
            <stop offset="1" stop-color="#106088"/>
        </linearGradient>
        <linearGradient id="linear-gradient-3" x1="0.5" y1="-0.014" x2="0.5" y2="0.985" gradientUnits="objectBoundingBox">
            <stop offset="0" stop-color="#fff"/>
            <stop offset="1" stop-color="#b3e3f8"/>
        </linearGradient>
        <linearGradient id="linear-gradient-4" x1="0.5" y1="-0.023" x2="0.5" y2="1.001" xlink:href="#linear-gradient-3"/>
        <linearGradient id="linear-gradient-12" x1="0.5" y1="1.024" x2="0.5" y2="-0.089" gradientUnits="objectBoundingBox">
            <stop offset="0" stop-color="#b3e3f8"/>
            <stop offset="1" stop-color="#fff"/>
        </linearGradient>
        <linearGradient id="linear-gradient-14" x1="0.5" y1="1.039" x2="0.5" y2="-0.033" xlink:href="#linear-gradient-12"/>
    </defs>
    <g id="Groupe_13818"  transform="translate(-86 -170.095)">
        <g id="Groupe_13814"  transform="translate(86 170)">
            <g id="Soustraction_1"  transform="translate(0 0.095)" fill="#1d81c0">
                <path d="M 81.5 161.5000152587891 C 70.6995849609375 161.5000152587891 60.22289276123047 159.3850402832031 50.36093521118164 155.2138214111328 C 45.62106704711914 153.2090606689453 41.0491943359375 150.7275390625 36.7723274230957 147.8381500244141 C 32.53634643554688 144.9764251708984 28.55243492126465 141.689453125 24.93124008178711 138.0684967041016 C 21.30928230285645 134.4460754394531 18.02239036560059 130.4622497558594 15.1619348526001 126.2277526855469 C 12.27245616912842 121.9506225585938 9.79086971282959 117.378776550293 7.786043643951416 112.6391220092773 C 3.614934682846069 102.777473449707 1.5 92.30075073242188 1.5 81.50001525878906 C 1.5 70.69927978515625 3.614934682846069 60.22255706787109 7.786043643951416 50.36086273193359 C 9.791543006896973 45.62023162841797 12.27315235137939 41.04833984375 15.16189098358154 36.77231979370117 C 18.02243423461914 32.53771209716797 21.309326171875 28.55388450622559 24.93132591247559 24.93142890930176 C 28.55249977111816 21.3105583190918 32.53641128540039 18.02358055114746 36.77230453491211 15.16188526153564 C 41.04908752441406 12.27255916595459 45.62095642089844 9.791036605834961 50.36093521118164 7.786189079284668 C 60.22284698486328 3.614993572235107 70.69954681396484 1.500015258789062 81.5 1.500015258789062 C 92.30045318603516 1.500015258789062 102.7771530151367 3.614993572235107 112.6390686035156 7.786189079284668 C 117.3791961669922 9.791036605834961 121.9509582519531 12.27258014678955 126.2273941040039 15.16186332702637 C 130.4635162353516 18.02353668212891 134.4474182128906 21.31049346923828 138.0684967041016 24.93151473999023 C 141.6894073486328 28.55249404907227 144.9763031005859 32.53631973266602 147.8378448486328 36.77227783203125 C 150.7269134521484 41.0484504699707 153.20849609375 45.62029647827148 155.2137145996094 50.36088562011719 C 159.3849945068359 60.22238540649414 161.5 70.69910430908203 161.5 81.50001525878906 C 161.5 92.30092620849609 159.3849945068359 102.7776489257812 155.2137145996094 112.6391448974609 C 153.2091369628906 117.3787994384766 150.7275390625 121.9505996704102 147.837890625 126.227668762207 C 144.9762573242188 130.4637603759766 141.6893768310547 134.4475860595703 138.0684814453125 138.0685424804688 C 134.4480285644531 141.68896484375 130.464111328125 144.9759521484375 126.2274322509766 147.8381500244141 C 121.9509353637695 150.7274780273438 117.379150390625 153.2089996337891 112.6390838623047 155.2137908935547 C 102.7771072387695 159.3850402832031 92.3004150390625 161.5000152587891 81.5 161.5000152587891 Z M 81.5 9.685906410217285 C 41.90152359008789 9.685906410217285 9.68580436706543 41.90158081054688 9.68580436706543 81.50001525878906 C 9.68580436706543 121.0984725952148 41.90152359008789 153.3141479492188 81.5 153.3141479492188 C 121.0983657836914 153.3141479492188 153.3139801025391 121.0984725952148 153.3139801025391 81.50001525878906 C 153.3139801025391 41.90158081054688 121.0983657836914 9.685906410217285 81.5 9.685906410217285 Z" stroke="none"/>
                <path d="M 81.5 160.0000152587891 C 92.09859466552734 160.0000152587891 102.3787078857422 157.9248962402344 112.0547485351562 153.8323059082031 C 116.7057037353516 151.8651733398438 121.191520690918 149.4302825927734 125.3877487182617 146.5951995849609 C 129.5453186035156 143.7864685058594 133.4548797607422 140.5608062744141 137.0078125 137.0079040527344 C 140.5612030029297 133.4544219970703 143.7867736816406 129.5449523925781 146.594970703125 125.3879241943359 C 149.4303894042969 121.1911544799805 151.8653411865234 116.7052688598633 153.8322296142578 112.0547866821289 C 157.9248657226562 102.3791961669922 160 92.09908294677734 160 81.50001525878906 C 160 70.90094757080078 157.9248657226562 60.62083435058594 153.8322296142578 50.94524383544922 C 151.8647766113281 46.29388046264648 149.4297943115234 41.80796813964844 146.5948791503906 37.61194610595703 C 143.786865234375 33.45519638061523 140.5612945556641 29.54571914672852 137.0078582763672 25.99217414855957 C 133.4543914794922 22.43876457214355 129.5448150634766 19.2131290435791 125.3876342773438 16.40476608276367 C 121.1915435791016 13.56976509094238 116.7057266235352 11.13485622406006 112.0547485351562 9.167696952819824 C 102.3786849975586 5.07512903213501 92.09859466552734 3.000015258789062 81.5 3.000015258789062 C 70.90140533447266 3.000015258789062 60.62131881713867 5.07512903213501 50.94527435302734 9.167696952819824 C 46.29447555541992 11.13481044769287 41.80854415893555 13.56972026824951 37.61202239990234 16.40480995178223 C 33.45522689819336 19.21308326721191 29.5456371307373 22.43876457214355 25.99206733703613 25.99201583862305 C 22.43756866455078 29.54697036743164 19.21197700500488 33.45647048950195 16.40484046936035 37.61201477050781 C 13.57027244567871 41.80785751342773 11.13527297973633 46.2938346862793 9.167568206787109 50.94517517089844 C 5.07506799697876 60.62101364135742 3 70.90115356445312 3 81.50001525878906 C 3 92.098876953125 5.07506799697876 102.3790130615234 9.167522430419922 112.0547637939453 C 11.13463592529297 116.7052459716797 13.56963634490967 121.1912002563477 16.40490913391113 125.3881072998047 C 19.2119312286377 129.5434875488281 22.43752288818359 133.4529876708984 25.99186325073242 137.0077819824219 C 29.5456371307373 140.5613403320312 33.45522689819336 143.7869873046875 37.61202239990234 146.59521484375 C 41.80856704711914 149.4303283691406 46.29449844360352 151.8652496337891 50.94525146484375 153.8323059082031 C 60.62129592895508 157.9248962402344 70.90140533447266 160.0000152587891 81.5 160.0000152587891 M 81.5 8.185924530029297 C 121.9254531860352 8.185924530029297 154.8139801025391 41.07449340820312 154.8139801025391 81.50001525878906 C 154.8139801025391 121.9255599975586 121.9254531860352 154.8141326904297 81.5 154.8141326904297 C 41.07440948486328 154.8141326904297 8.185795783996582 121.9255599975586 8.185795783996582 81.50001525878906 C 8.185795783996582 41.07449340820312 41.07440948486328 8.185924530029297 81.5 8.185924530029297 M 81.5 163.0000152587891 C 70.49756622314453 163.0000152587891 59.82445526123047 160.8451690673828 49.77661514282227 156.5953369140625 C 44.94727325439453 154.5527191162109 40.28954696655273 152.0245666503906 35.93261337280273 149.0810852050781 C 31.6171817779541 146.1656951904297 27.55909156799316 142.8173980712891 23.87061309814453 139.1291961669922 C 20.18238639831543 135.4404754638672 16.83374977111816 131.3823089599609 13.91895484924316 127.0673980712891 C 10.97559070587158 122.7104949951172 8.447272300720215 118.0527191162109 6.404545307159424 113.2234954833984 C 2.154795408248901 103.1758575439453 0 92.5025634765625 0 81.50001525878906 C 0 70.49748992919922 2.154795408248901 59.82417297363281 6.404545307159424 49.77653884887695 C 8.44752311706543 44.947265625 10.97559070587158 40.28949356079102 13.91895484924316 35.9326286315918 C 16.83374977111816 31.61771965026855 20.18238639831543 27.55953788757324 23.87061309814453 23.87083435058594 C 27.55909156799316 20.18267440795898 31.6171817779541 16.83437919616699 35.93261337280273 13.91894721984863 C 40.28954696655273 10.9754695892334 44.94727325439453 8.447310447692871 49.77661514282227 6.404674530029297 C 59.82445526123047 2.154856204986572 70.49756622314453 1.52587890625e-05 81.5 1.52587890625e-05 C 92.50220489501953 1.52587890625e-05 103.1755447387695 2.154856204986572 113.223388671875 6.404674530029297 C 118.0527267456055 8.447287559509277 122.7104568481445 10.9754467010498 127.067138671875 13.91894721984863 C 131.3828125 16.83437919616699 135.4409332275391 20.18267440795898 139.1291656494141 23.87083435058594 C 142.817138671875 27.55892372131348 146.16552734375 31.6170825958252 149.0808258056641 35.9326286315918 C 152.0244140625 40.28949356079102 154.5525054931641 44.947265625 156.5952301025391 49.77653884887695 C 160.8452301025391 59.82417297363281 163 70.49748992919922 163 81.50001525878906 C 163 92.5025634765625 160.8452301025391 103.1758575439453 156.5952301025391 113.2234954833984 C 154.552734375 118.0527191162109 152.0244140625 122.7104949951172 149.0808258056641 127.0673980712891 C 146.16552734375 131.3829193115234 142.817138671875 135.4411315917969 139.1291656494141 139.1291961669922 C 135.4409332275391 142.8173980712891 131.382568359375 146.1656951904297 127.067138671875 149.0810852050781 C 122.7104568481445 152.0245819091797 118.0527267456055 154.5527496337891 113.223388671875 156.5953369140625 C 103.1755447387695 160.8451690673828 92.50220489501953 163.0000152587891 81.5 163.0000152587891 Z M 81.5 11.1859245300293 C 42.7287483215332 11.1859245300293 11.18579578399658 42.72867584228516 11.18579578399658 81.50001525878906 C 11.18579578399658 120.2713088989258 42.7287483215332 151.8141326904297 81.5 151.8141326904297 C 120.2712478637695 151.8141326904297 151.8139801025391 120.2713088989258 151.8139801025391 81.50001525878906 C 151.8139801025391 42.72867584228516 120.2712478637695 11.1859245300293 81.5 11.1859245300293 Z" stroke="none" fill="#1d81c0"/>
            </g>
            <g transform="matrix(1, 0, 0, 1, 0, 0.09)" filter="url(#Ellipse_388)">
                <circle id="Ellipse_388-2"  cx="61.5" cy="61.5" r="61.5" transform="translate(20 20)" fill="#fff"/>
            </g>
            <g id="Groupe_3136" transform="translate(35.977 48.768)">
                <rect id="Rectangle_808"  width="82.49" height="36.739" transform="translate(4.276 24.665)" fill="url(#linear-gradient)"/>
                <path id="Tracé_1995"  d="M568.823,174.044l-10.608,15.351h18.111l6.364-15.351Z" transform="translate(-557.97 -174.044)" fill="url(#linear-gradient)"/>
                <path id="Tracé_1996" d="M585.107,207.791h0a9.056,9.056,0,0,1-9.056-9.055v-9.573h18.111v9.573A9.055,9.055,0,0,1,585.107,207.791Z" transform="translate(-557.695 -173.812)" fill="url(#linear-gradient-3)"/>
                <path id="Tracé_1997"  d="M582.416,174.044l-6.365,15.351h18.111l2.122-15.351Z" transform="translate(-557.696 -174.044)" fill="url(#linear-gradient-4)"/>
                <path id="Tracé_1998"  d="M602.943,207.791h0a9.056,9.056,0,0,1-9.055-9.055v-9.573H612v9.573A9.055,9.055,0,0,1,602.943,207.791Z" transform="translate(-557.421 -173.812)" fill="url(#linear-gradient)"/>
                <path id="Tracé_1999"  d="M596.009,174.044l-2.122,15.351H612l-2.122-15.351Z" transform="translate(-557.421 -174.044)" fill="url(#linear-gradient)"/>
                <path id="Tracé_2000"  d="M620.779,207.791h0a9.055,9.055,0,0,1-9.055-9.055v-9.573h18.111v9.573A9.056,9.056,0,0,1,620.779,207.791Z" transform="translate(-557.147 -173.812)" fill="url(#linear-gradient-3)"/>
                <path id="Tracé_2001"  d="M609.635,174.044l2.122,15.351h18.111L623.5,174.044Z" transform="translate(-557.18 -174.044)" fill="url(#linear-gradient-4)"/>
                <path id="Tracé_2002"  d="M638.616,207.791h0a9.055,9.055,0,0,1-9.055-9.055v-9.573h18.11v9.573A9.055,9.055,0,0,1,638.616,207.791Z" transform="translate(-556.873 -173.812)" fill="url(#linear-gradient)"/>
                <path id="Tracé_2119"  d="M638.616,207.791h0a9.055,9.055,0,0,1-9.055-9.055v-9.573h18.11v9.573A9.055,9.055,0,0,1,638.616,207.791Z" transform="translate(-629.561 -173.812)" fill="url(#linear-gradient)"/>
                <path id="Tracé_2003"  d="M623.292,174.044l6.365,15.351h18.11L637.16,174.044Z" transform="translate(-556.97 -174.044)" fill="url(#linear-gradient)"/>
                <path id="Tracé_2004"  d="M611.473,234.906V217.079a7.81,7.81,0,0,0-7.787-7.787h-1.5a7.81,7.81,0,0,0-7.787,7.787v17.827Z" transform="translate(-557.413 -173.502)" fill="url(#linear-gradient-12)"/>
                <rect id="Rectangle_810"  width="90.553" height="4.916" transform="translate(0.245 61.403)" fill="url(#linear-gradient)"/>
                <g id="Groupe_2413"  transform="translate(10.508 41.697)">
                    <rect id="Rectangle_811"  width="20.525" height="11.815" transform="translate(49.502)" fill="url(#linear-gradient-14)"/>
                    <rect id="Rectangle_812"  width="20.525" height="11.815" fill="url(#linear-gradient-14)"/>
                </g>
            </g>
        </g>
    </g>
</svg>

